Met Nederlandse stemmen,
Het meisje Mary (Elle Fanning) krijgt van haar oom (Nathan Lane) een op het oog niet zo bijzonder kerstcadeau: een notenkrakerpop. Maar als ze 's nachts wakker wordt blijkt dat de pop tot leven is gekomen en hij trekt Mary mee in een sprookjesachtig avontuur.

Dutch spoken,
Set in 1920's Vienna, this a tale of a little girl, whose godfather gives her a special doll one Christmas Eve. 

------------------------ Dutch Friends ------------------------
---------------------------------------------------------------
- Bezoek ook eens mijn vrienden op:  http://www.Film-Test.nl --
----- voor mijn Nederlandse Sync. ondertitels ---- en meer ----
------- http://www.Film-Test.nl ---- voor Films en meer -------
---------------------------------------------------------------

General:

Complete name                    : The Nutcracker\The Nutcracker.avi
Format                           : AVI
Format/Info                      : Audio Video Interleave
File size                        : 1.66 GiB
Duration                         : 1h 43mn
Overall bit rate                 : 2 299 Kbps

Video:

Format                           : MPEG-4 Visual
Format profile                   : Simple@L3
Format settings, BVOP            : No
Format settings, QPel            : No
Format settings, GMC             : No warppoints
Format settings, Matrix          : Default (H.263)
Codec ID                         : XVID
Codec ID/Hint                    : XviD
Duration                         : 1h 43mn
Bit rate                         : 1 904 Kbps
Width                            : 720 pixels
Height                           : 304 pixels
Display aspect ratio             : 2.35:1
Frame rate                       : 25.000 fps
Color space                      : YUV
Chroma subsampling               : 4:2:0
Bit depth                        : 8 bits
Scan type                        : Progressive
Compression mode                 : Lossy
Bits/(Pixel*Frame)               : 0.348
Stream size                      : 1.38 GiB (83%)
Writing library                  : XviD 1.1.2 (UTC 2006-11-01)

Audio:

Format                           : AC-3
Format/Info                      : Audio Coding 3
Mode extension                   : CM (complete main)
Codec ID                         : 2000
Duration                         : 1h 43mn
Bit rate mode                    : Constant
Bit rate                         : 384 Kbps
Channel(s)                       : 6 channels
Channel positions                : Front: L C R, Side: L R, LFE
Sampling rate                    : 48.0 KHz
Bit depth                        : 16 bits
Compression mode                 : Lossy
Stream size                      : 284 MiB (17%)
Alignment                        : Aligned on interleaves
Interleave, duration             : 32 ms (0.80 video frame)
Interleave, preload duration     : 256 ms

